<?xml version="1.0" standalone="no"?>
<!DOCTYPE svg PUBLIC "-//W3C//DTD SVG 20010904//EN"
 "http://www.w3.org/TR/2001/REC-SVG-20010904/DTD/svg10.dtd">
<svg version="1.0" xmlns="http://www.w3.org/2000/svg"
 width="3825.000000pt" height="3825.000000pt" viewBox="0 0 3825.000000 3825.000000"
 preserveAspectRatio="xMidYMid meet">
<metadata>
Created by potrace 1.11, written by Peter Selinger 2001-2013
</metadata>
<g transform="translate(0.000000,3825.000000) scale(0.100000,-0.100000)"
fill="#000000" stroke="none">
<path d="M18590 38244 c-796 -28 -1447 -82 -2145 -180 -4842 -677 -9231 -3189
-12297 -7039 -2399 -3013 -3823 -6664 -4097 -10505 -38 -530 -45 -747 -45
-1390 0 -738 16 -1134 75 -1770 248 -2713 1069 -5329 2411 -7683 1084 -1902
2479 -3598 4142 -5036 2217 -1916 4882 -3311 7709 -4036 2014 -516 4094 -701
6192 -550 4785 345 9265 2489 12562 6013 2063 2205 3582 4882 4411 7777 758
2644 936 5468 516 8205 -421 2749 -1431 5353 -2975 7670 -1015 1524 -2253
2904 -3662 4083 -2294 1920 -5018 3280 -7922 3953 -1118 260 -2211 410 -3445
474 -199 11 -1238 21 -1430 14z m1035 -2734 c1640 -55 3139 -323 4670 -834
756 -253 1369 -506 2075 -857 1404 -698 2606 -1520 3790 -2594 223 -202 731
-705 957 -948 2494 -2685 4012 -6080 4332 -9697 48 -541 55 -724 56 -1440 0
-787 -13 -1074 -81 -1720 -424 -4071 -2373 -7839 -5473 -10579 -2655 -2346
-5980 -3764 -9501 -4050 -503 -41 -641 -46 -1340 -46 -733 1 -912 8 -1490 61
-3457 315 -6737 1739 -9355 4061 -481 427 -1070 1021 -1490 1503 -1293 1482
-2306 3175 -2997 5005 -191 507 -402 1176 -537 1705 -461 1802 -611 3688 -441
5535 296 3209 1513 6220 3537 8745 753 939 1610 1796 2553 2553 2403 1928
5267 3131 8310 3491 809 96 1639 132 2425 106z"/>
<path d="M18787 30035 c-908 -114 -1687 -659 -2097 -1465 -146 -289 -227 -547
-276 -885 -25 -167 -25 -551 -1 -725 85 -611 347 -1140 777 -1570 499 -499
1128 -771 1845 -797 756 -27 1489 261 2024 797 403 403 662 909 762 1491 27
158 37 548 19 726 -63 628 -336 1200 -784 1648 -423 422 -915 671 -1526 771
-133 22 -596 28 -743 9z"/>
<path d="M10125 25264 c-337 -37 -621 -169 -845 -394 -259 -258 -392 -584
-392 -960 0 -371 126 -687 378 -950 113 -117 232 -204 379 -276 140 -68 170
-76 825 -229 2087 -485 3455 -760 4750 -954 328 -49 832 -117 1059 -142 l114
-13 -7 -390 c-74 -4318 -382 -6974 -1061 -9171 -197 -635 -543 -1579 -810
-2205 -62 -146 -120 -290 -128 -320 -71 -249 -67 -539 9 -781 85 -269 265
-523 494 -695 141 -107 362 -208 535 -246 96 -21 459 -18 565 5 412 89 755
349 938 714 94 186 552 1371 766 1982 439 1249 740 2479 941 3836 20 138 39
256 41 263 3 9 101 12 449 12 245 0 445 -2 445 -5 0 -2 16 -109 35 -237 236
-1554 557 -2819 1068 -4208 219 -596 579 -1514 641 -1639 181 -359 516 -619
916 -712 113 -27 394 -37 523 -19 432 58 833 362 1031 780 93 198 131 387 123
620 -9 237 -26 299 -185 670 -242 566 -610 1567 -797 2170 -422 1364 -690
2849 -859 4780 -108 1219 -183 2816 -203 4306 l-6 491 64 7 c1009 108 2446
353 3919 667 667 142 1911 424 2450 555 346 85 599 245 794 503 121 161 202
339 248 542 20 89 23 131 23 289 0 156 -4 201 -23 289 -122 545 -533 941
-1087 1047 -111 21 -357 24 -465 5 -41 -7 -224 -49 -407 -92 -3360 -796 -5301
-1122 -7313 -1229 -328 -18 -1237 -24 -1585 -11 -2022 75 -3968 388 -7370
1186 -313 73 -597 138 -630 144 -66 12 -288 21 -350 15z"/>
</g>
</svg>
