<?xml version="1.0" encoding="utf-8"?>
<!-- Generator: Adobe Illustrator 19.2.1, SVG Export Plug-In . SVG Version: 6.00 Build 0)  -->
<svg version="1.1" id="Layer_1" xmlns="http://www.w3.org/2000/svg" xmlns:xlink="http://www.w3.org/1999/xlink" x="0px" y="0px"
	 viewBox="0 0 100 100" style="enable-background:new 0 0 100 100;" xml:space="preserve">
<g>
	<path d="M80.3,17.7c2.4,0,4.4,1.9,4.4,4.2v45.9c0,4.6-5.9,8.3-13.1,8.3s-13.1-3.7-13.1-8.3s5.9-8.3,13.1-8.3c1.2,0,3.2,0.2,4.4,0.5
		V35.9l-34.8,9.8v30.5c0,4.6-5.9,8.3-13.1,8.3S15,80.8,15,76.2s5.9-8.3,13.1-8.3c1.2,0,3.2,0.2,4.4,0.5V34.2c0-1.7,1.4-3.5,3.1-4
		L79,17.9C79.4,17.8,80,17.7,80.3,17.7z"/>
</g>
</svg>
