<?xml version="1.0" standalone="no"?>
<!DOCTYPE svg PUBLIC "-//W3C//DTD SVG 20010904//EN"
 "http://www.w3.org/TR/2001/REC-SVG-20010904/DTD/svg10.dtd">
<svg version="1.0" xmlns="http://www.w3.org/2000/svg"
 width="4269.000000pt" height="4269.000000pt" viewBox="0 0 4269.000000 4269.000000"
 preserveAspectRatio="xMidYMid meet">
<metadata>
Created by potrace 1.11, written by Peter Selinger 2001-2013
</metadata>
<g transform="translate(0.000000,4269.000000) scale(0.100000,-0.100000)"
fill="#000000" stroke="none">
<path d="M18175 39454 c-1089 -116 -2082 -701 -2794 -1644 -313 -414 -589
-949 -751 -1455 -345 -1079 -342 -2288 10 -3355 399 -1212 1198 -2174 2239
-2694 1148 -575 2506 -528 3617 125 1149 675 1964 1920 2199 3359 182 1122 21
2263 -460 3245 -442 902 -1136 1620 -1971 2038 -407 204 -855 334 -1312 381
-188 20 -593 20 -777 0z"/>
<path d="M4715 31079 c-290 -35 -586 -144 -835 -307 -143 -93 -236 -170 -361
-298 -458 -472 -700 -1135 -676 -1849 14 -414 98 -752 273 -1105 226 -455 562
-799 979 -1000 66 -32 154 -70 195 -85 82 -29 1093 -300 1975 -530 2700 -702
4708 -1147 6560 -1454 514 -85 1225 -190 1461 -217 34 -3 67 -10 75 -14 11 -7
11 -154 1 -852 -71 -4772 -307 -8497 -728 -11448 -289 -2029 -667 -3756 -1216
-5545 -248 -812 -680 -2100 -905 -2700 -178 -475 -199 -538 -237 -708 -144
-646 -39 -1332 289 -1894 272 -464 687 -819 1150 -983 252 -88 632 -113 935
-61 670 116 1240 579 1543 1255 111 247 727 2044 1065 3111 684 2153 1140
4150 1477 6475 46 318 145 1053 145 1077 0 11 128 13 689 13 l689 0 6 -47
c390 -3062 898 -5342 1803 -8088 336 -1023 780 -2307 864 -2504 126 -292 290
-532 515 -751 233 -227 469 -372 764 -471 384 -128 866 -131 1217 -8 663 233
1199 843 1408 1604 127 465 123 975 -12 1440 -14 50 -95 274 -180 499 -182
482 -503 1422 -757 2216 -496 1551 -849 2961 -1130 4520 -583 3222 -893 7362
-977 13022 -7 450 -10 821 -6 824 3 4 163 28 354 55 1910 262 3870 659 6473
1310 1309 327 3108 802 3278 865 665 248 1174 869 1357 1659 58 249 80 624 52
887 -47 433 -177 812 -395 1143 -411 628 -1063 981 -1757 951 -211 -9 -297
-26 -845 -174 -4656 -1256 -7477 -1834 -10165 -2081 -1339 -124 -2667 -152
-3925 -86 -1664 89 -3357 314 -5360 715 -1627 325 -3400 754 -5915 1432 -308
83 -607 159 -665 170 -124 22 -425 32 -545 17z"/>
</g>
</svg>
