<svg version="1.1" id="Layer_1" xmlns="http://www.w3.org/2000/svg" xmlns:xlink="http://www.w3.org/1999/xlink" x="0px" y="0px"
	 viewBox="0 0 100 100" style="enable-background:new 0 0 100 100;" xml:space="preserve">
<g>
	<path d="M85.3,40.2v11H14.7v-11c0-3.5,3.1-6.6,6.6-6.6h11V27c0-3.5,3.1-6.6,6.6-6.6h22c3.5,0,6.6,3.1,6.6,6.6v6.6h11
		C82.2,33.6,85.3,36.7,85.3,40.2z M58.8,55.6h26.4v19.8c0,3.5-3.1,6.6-6.6,6.6H21.4c-3.5,0-6.6-3.1-6.6-6.6V55.6h26.4v6.6
		c0,1.2,1,2.2,2.2,2.2h13.2c1.2,0,2.2-1,2.2-2.2V55.6z M58.8,29.2H41.2v4.4h17.6V29.2z"/>
</g>
</svg>
