<svg version="1.1" id="Layer_1" xmlns="http://www.w3.org/2000/svg" xmlns:xlink="http://www.w3.org/1999/xlink" x="0px" y="0px"
	 viewBox="0 0 100 100" style="enable-background:new 0 0 100 100;" xml:space="preserve">
<g>
	<path d="M84.5,62c-1.6,5.2-4.4,9.9-8,13.8c-0.6,0.6-1.4,0.7-2.2,0.3l-6.2-3.6c-2.6,2.2-5.6,4-8.9,5.1v7.2c0,0.8-0.6,1.5-1.4,1.7
		c-5.1,1.1-10.6,1.2-15.9,0c-0.8-0.2-1.4-0.9-1.4-1.7v-7.2c-3.2-1.1-6.3-2.9-8.9-5.1l-6.2,3.6c-0.7,0.4-1.6,0.3-2.2-0.3
		c-3.6-3.9-6.4-8.6-8-13.8c-0.2-0.8,0.1-1.6,0.8-2l6.2-3.6c-0.6-3.4-0.6-6.8,0-10.2l-6.2-3.6c-0.7-0.4-1-1.3-0.8-2
		c1.6-5.2,4.4-9.9,8-13.8c0.6-0.6,1.4-0.7,2.2-0.3l6.2,3.6c2.6-2.2,5.6-4,8.9-5.1v-7.2c0-0.8,0.6-1.5,1.4-1.7
		c5.1-1.1,10.6-1.2,15.9,0c0.8,0.2,1.4,0.9,1.4,1.7v7.2c3.2,1.1,6.3,2.9,8.9,5.1l6.2-3.6c0.7-0.4,1.6-0.3,2.2,0.3
		c3.6,3.9,6.4,8.6,8,13.8c0.2,0.8-0.1,1.6-0.8,2l-6.2,3.6c0.6,3.4,0.6,6.8,0,10.2l6.2,3.6C84.4,60.4,84.7,61.2,84.5,62z M61.7,51.3
		c0-6.4-5.2-11.7-11.7-11.7c-6.4,0-11.7,5.2-11.7,11.7S43.6,62.9,50,62.9C56.4,62.9,61.7,57.7,61.7,51.3z"/>
</g>
</svg>
