<svg version="1.1" id="Layer_1" xmlns="http://www.w3.org/2000/svg" xmlns:xlink="http://www.w3.org/1999/xlink" x="0px" y="0px"
	 viewBox="0 0 100 100" style="enable-background:new 0 0 100 100;" xml:space="preserve">
<g>
	<path d="M89.8,51.9c0,0.3-0.2,0.8-0.4,1.1l-3.5,4.3c-0.3,0.3-0.8,0.6-1.3,0.6c-0.3,0-0.8-0.2-1.1-0.4L51.1,30.7
		c-0.3-0.2-0.7-0.4-1.1-0.4c-0.3,0-0.8,0.2-1.1,0.4L16.5,57.4c-0.3,0.2-0.7,0.4-1.1,0.4c-0.4,0-1-0.3-1.3-0.6l-3.5-4.3
		c-0.2-0.3-0.4-0.7-0.4-1.1c0-0.4,0.3-1,0.6-1.3l34.9-28.8c1-0.8,2.9-1.5,4.2-1.5c1.3,0,3.2,0.7,4.2,1.5L66.6,32V22
		c0-0.9,0.7-1.7,1.7-1.7H76c0.9,0,1.7,0.7,1.7,1.7v19.1l11.5,9.5C89.5,50.9,89.8,51.4,89.8,51.9z M50,36c0.3,0,0.8,0.2,1.1,0.4
		l25.4,20.9v22.6c0,1.2-1,2.2-2.2,2.2l-15.5,0c-1.2,0-2.2-1-2.2-2.2c0,0,0,0,0,0V66.7c0-1.2-1-2.2-2.2-2.2h-8.8
		c-1.2,0-2.2,1-2.2,2.2v13.2c0,1.2-1,2.2-2.2,2.2l-15.5,0c-1.2,0-2.2-1-2.2-2.2V57.3l25.4-21C49.2,36.1,49.7,36,50,36z"/>
</g>
</svg>
