<svg version="1.1" id="Layer_1" xmlns="http://www.w3.org/2000/svg" xmlns:xlink="http://www.w3.org/1999/xlink" x="0px" y="0px"
	 viewBox="0 0 100 100" style="enable-background:new 0 0 100 100;" xml:space="preserve">
<g>
	<path d="M88.2,37.7c0,22.9-14.7,41.6-35.5,43.1C42,81.9,33.8,76.3,29.5,70.5c-6.8,5.7-9.3,11.6-9.5,12c-0.9,2.2-3.4,3.2-5.6,2.3
		c-2.2-0.9-3.2-3.4-2.3-5.5c3.1-7.7,17.3-28.2,50.7-28.2c1.2,0,2.1-1,2.1-2.1c0-1.2-1-2.1-2.1-2.1c-17.3,0-29.6,5.2-38,11.2
		c-0.1-0.9-0.2-1.8-0.2-2.7c0-14.1,11.4-25.5,25.5-25.5h10.6c8.4,0,15.8-4.5,19.9-11.6c0.9-1.6,3-1.5,3.8,0.2
		C86.8,24.1,88.2,31,88.2,37.7z"/>
</g>
</svg>
