<svg version="1.1" id="Layer_1" xmlns="http://www.w3.org/2000/svg" xmlns:xlink="http://www.w3.org/1999/xlink" x="0px" y="0px"
	 viewBox="0 0 100 100" style="enable-background:new 0 0 100 100;" xml:space="preserve">
<g>
	<path d="M70.5,48.1L34.9,83.7H17.1V65.9l35.6-35.6L70.5,48.1z M36.6,74.3L26.5,64.3l-3.9,3.9v4.6h5.5v5.5h4.6L36.6,74.3z
		 M54.1,37.6c-0.3,0-0.5,0.1-0.7,0.3L30.2,61.1c-0.2,0.2-0.3,0.5-0.3,0.7c0,0.6,0.4,0.9,0.9,0.9c0.3,0,0.5-0.1,0.7-0.3l23.2-23.2
		c0.2-0.2,0.3-0.5,0.3-0.7C55,38,54.7,37.6,54.1,37.6z M80.4,38.3l-7.1,7.1L55.5,27.6l7.1-7.1c1-1,2.4-1.6,3.8-1.6
		c1.5,0,2.9,0.6,3.9,1.6l10.1,10c1,1,1.6,2.4,1.6,3.9S81.3,37.3,80.4,38.3z"/>
</g>
</svg>
