<svg version="1.1" id="Layer_1" xmlns="http://www.w3.org/2000/svg" xmlns:xlink="http://www.w3.org/1999/xlink" x="0px" y="0px"
	 viewBox="0 0 100 100" style="enable-background:new 0 0 100 100;" xml:space="preserve">
<g>
	<path d="M84.6,51.2c0,19.1-15.5,34.6-34.6,34.6c-19.1,0-34.6-15.5-34.6-34.6c0-19.1,15.5-34.6,34.6-34.6
		C69.1,16.7,84.6,32.1,84.6,51.2z M21,51.2c0,16,13,29,29,29c16,0,29-13,29-29c0-16-13-29-29-29C34,22.2,21,35.2,21,51.2z
		 M76.8,51.2C76.8,66,64.8,78,50,78S23.3,66,23.3,51.2s12-26.8,26.8-26.8S76.8,36.4,76.8,51.2z M68.1,41.6c-0.3-1.2-1.5-1.9-2.7-1.7
		c-13.4,3.2-17.3,3.2-30.8,0c-1.2-0.3-2.4,0.5-2.7,1.7c-0.3,1.2,0.5,2.4,1.7,2.7c4,0.9,7.7,1.8,11.4,2.2
		c-0.1,14.1-1.7,17.1-3.5,21.7c-0.5,1.3,0.1,2.7,1.4,3.2c1.3,0.5,2.7-0.1,3.2-1.4c1.2-3.1,2.4-5.7,3.1-10.9h1.3
		c0.7,5.3,1.9,7.8,3.1,10.9c0.5,1.3,2,1.9,3.2,1.4c1.3-0.5,1.9-2,1.4-3.2c-1.8-4.5-3.4-7.6-3.5-21.7c3.7-0.4,7.4-1.3,11.4-2.2
		C67.6,44,68.3,42.8,68.1,41.6z M45,35.6c0,2.8,2.2,5,5,5s5-2.2,5-5c0-2.8-2.2-5-5-5S45,32.8,45,35.6z"/>
</g>
</svg>
