<?xml version="1.0" standalone="no"?>
<!DOCTYPE svg PUBLIC "-//W3C//DTD SVG 20010904//EN"
 "http://www.w3.org/TR/2001/REC-SVG-20010904/DTD/svg10.dtd">
<svg version="1.0" xmlns="http://www.w3.org/2000/svg"
 width="3825.000000pt" height="3825.000000pt" viewBox="0 0 3825.000000 3825.000000"
 preserveAspectRatio="xMidYMid meet">
<metadata>
Created by potrace 1.11, written by Peter Selinger 2001-2013
</metadata>
<g transform="translate(0.000000,3825.000000) scale(0.100000,-0.100000)"
fill="#000000" stroke="none">
<path d="M18590 38244 c-796 -28 -1447 -82 -2145 -180 -4842 -677 -9231 -3189
-12297 -7039 -2399 -3013 -3823 -6664 -4097 -10505 -38 -530 -45 -747 -45
-1390 0 -738 16 -1134 75 -1770 248 -2713 1069 -5329 2411 -7683 1084 -1902
2479 -3598 4142 -5036 2217 -1916 4882 -3311 7709 -4036 2014 -516 4094 -701
6192 -550 4785 345 9265 2489 12562 6013 2063 2205 3582 4882 4411 7777 758
2644 936 5468 516 8205 -421 2749 -1431 5353 -2975 7670 -1015 1524 -2253
2904 -3662 4083 -2294 1920 -5018 3280 -7922 3953 -1118 260 -2211 410 -3445
474 -199 11 -1238 21 -1430 14z m930 -8218 c317 -52 558 -128 827 -261 833
-413 1399 -1236 1494 -2168 17 -176 7 -548 -20 -706 -70 -406 -216 -777 -431
-1096 -190 -281 -465 -555 -746 -743 -809 -542 -1853 -610 -2729 -178 -823
406 -1374 1176 -1502 2096 -24 173 -23 539 1 705 75 516 254 942 566 1345 90
115 314 341 430 434 398 315 879 517 1387 581 145 19 590 13 723 -9z m-9053
-4777 c32 -6 315 -71 628 -144 3402 -798 5348 -1111 7370 -1186 350 -13 1278
-7 1605 11 2014 107 3953 433 7313 1229 420 100 452 105 622 105 280 -1 525
-75 756 -229 290 -194 484 -477 567 -829 23 -98 26 -132 26 -296 0 -165 -2
-197 -26 -296 -49 -207 -140 -401 -258 -549 -114 -143 -294 -292 -447 -369
-151 -76 -173 -82 -988 -271 -2157 -501 -3646 -792 -5035 -984 -206 -29 -557
-73 -687 -87 -60 -6 -62 -7 -58 -33 2 -14 7 -237 10 -496 16 -1428 93 -3064
201 -4285 169 -1931 437 -3416 859 -4780 184 -591 559 -1613 793 -2155 165
-385 186 -466 187 -720 0 -186 -13 -269 -65 -427 -67 -200 -169 -367 -323
-525 -207 -213 -468 -354 -742 -399 -123 -20 -410 -14 -520 11 -403 90 -722
328 -922 685 -71 126 -543 1344 -763 1965 -452 1280 -756 2518 -965 3925 -14
96 -28 187 -31 203 l-6 27 -449 0 -449 0 0 -21 c0 -35 -89 -598 -136 -864
-224 -1256 -503 -2294 -939 -3495 -187 -516 -610 -1602 -670 -1720 -85 -167
-272 -382 -425 -487 -150 -102 -334 -180 -520 -220 -108 -23 -437 -26 -545 -4
-252 50 -499 186 -695 381 -355 355 -488 869 -349 1343 11 37 69 181 128 320
257 598 612 1566 806 2192 679 2197 988 4866 1061 9171 l7 401 -109 12 c-1320
152 -2885 435 -4844 876 -549 124 -1387 319 -1527 355 -300 78 -536 227 -719
454 -202 251 -304 540 -305 863 0 158 20 290 66 430 67 202 164 361 313 515
223 230 504 368 832 408 86 10 282 4 367 -11z"/>
</g>
</svg>
